<?xml version="1.0" encoding="UTF-8" standalone="no"?>
<svg
   width="947.46301"
   height="968"
   viewBox="0 0 947.46301 968"
   version="1.1"
   xml:space="preserve"
   style="clip-rule:evenodd;fill-rule:evenodd;stroke-linejoin:round;stroke-miterlimit:2"
   id="svg9"
   sodipodi:docname="Dynadot_logo.svg"
   inkscape:version="1.4.2 (ebf0e940d0, 2025-05-08)"
   xmlns:inkscape="http://www.inkscape.org/namespaces/inkscape"
   xmlns:sodipodi="http://sodipodi.sourceforge.net/DTD/sodipodi-0.dtd"
   xmlns="http://www.w3.org/2000/svg"
   xmlns:svg="http://www.w3.org/2000/svg"><defs
     id="defs9" /><sodipodi:namedview
     id="namedview9"
     pagecolor="#ffffff"
     bordercolor="#000000"
     borderopacity="0.25"
     inkscape:showpageshadow="2"
     inkscape:pageopacity="0.0"
     inkscape:pagecheckerboard="0"
     inkscape:deskcolor="#d1d1d1"
     inkscape:zoom="0.57825252"
     inkscape:cx="1096.4068"
     inkscape:cy="627.75342"
     inkscape:window-width="2560"
     inkscape:window-height="1368"
     inkscape:window-x="0"
     inkscape:window-y="0"
     inkscape:window-maximized="1"
     inkscape:current-layer="svg9" /><g
     id="g1"
     style="fill:#000000"><path
       d="M 0,718.435 V 684.373 C 6.563,599.56 48.281,523.592 117.188,474.154 c 12.031,-8.656 31.874,-19.969 59.531,-33.937 17.687,-8.938 37.969,-19.438 60.812,-31.532 0.532,-0.281 0.719,-0.937 0.438,-1.468 L 150.438,239.154 C 150,238.31 150.344,237.248 151.188,236.81 337.594,139.904 469.875,71.154 548.063,30.529 644.25,-19.408 764.938,-7.346 849.906,61.31 c 135.438,109.469 128.219,320.375 -11.468,424.25 -13.094,9.719 -34.344,22.094 -63.688,37.125 -35.875,18.344 -57.781,29.657 -65.719,33.907 -0.656,0.343 -0.906,1.156 -0.562,1.781 l 87.375,167.812 c 0.437,0.844 0.094,1.907 -0.75,2.344 C 570.781,845.06 449.875,907.998 432.375,917.342 392.781,938.435 364.438,951.435 347.406,956.31 180.094,1004.06 14.375,891.873 0,718.435 Z m 330.094,-357.75 c 2,-0.812 18.75,-9.593 50.25,-26.312 24.219,-12.875 41.875,-20.781 52.969,-23.719 61.593,-16.375 124.468,2.031 166.937,49.438 9.25,10.312 19.969,27.5 32.156,51.5 14.282,28.187 23.625,46.187 27.938,54 0.437,0.781 1.437,1.062 2.219,0.625 27.125,-14.438 47.781,-25.188 61.937,-32.25 29.031,-14.563 48.969,-26.469 59.75,-35.688 60.219,-51.594 79.594,-136.937 42.781,-207.562 -36,-69.094 -113.843,-105.344 -190.093,-86.969 -13.407,3.219 -33.532,11.844 -60.375,25.906 -94.157,49.313 -190.344,99.469 -288.625,150.5 -0.844,0.469 -1.188,1.531 -0.719,2.375 l 40.406,77.281 c 0.469,0.907 1.563,1.282 2.469,0.875 z m 220.031,122.032 c 0,-42.5 -34.469,-76.969 -76.969,-76.969 -42.5,0 -76.968,34.469 -76.968,76.969 0,42.5 34.468,76.968 76.968,76.968 42.5,0 76.969,-34.468 76.969,-76.968 z m 66.281,122.187 c -2,0.813 -18.781,9.563 -50.375,26.25 -24.281,12.844 -42,20.75 -53.093,23.688 -61.719,16.281 -124.657,-2.25 -167.094,-49.813 -9.25,-10.344 -19.969,-27.562 -32.125,-51.625 -14.281,-28.25 -23.563,-46.281 -27.906,-54.125 -0.438,-0.781 -1.438,-1.094 -2.219,-0.656 -27.188,14.406 -47.875,25.156 -62.063,32.219 -29.125,14.531 -49.094,26.406 -59.906,35.625 -60.406,51.562 -79.969,137 -43.219,207.812 35.938,69.25 113.844,105.688 190.25,87.438 13.406,-3.219 33.594,-11.813 60.5,-25.844 94.375,-49.219 190.813,-99.313 289.313,-150.25 0.875,-0.438 1.187,-1.5 0.75,-2.375 l -40.344,-77.469 c -0.469,-0.906 -1.563,-1.281 -2.469,-0.875 z"
       style="fill:#000000;fill-rule:nonzero"
       id="path1" /></g></svg>
