<?xml version="1.0" encoding="UTF-8" standalone="no"?>
<!-- Created with Inkscape (http://www.inkscape.org/) -->

<svg
   version="1.1"
   id="svg1"
   width="180"
   height="180"
   viewBox="0 0 180 180"
   sodipodi:docname="hetzner-light.svg"
   xml:space="preserve"
   inkscape:version="1.4.2 (ebf0e940d0, 2025-05-08)"
   xmlns:inkscape="http://www.inkscape.org/namespaces/inkscape"
   xmlns:sodipodi="http://sodipodi.sourceforge.net/DTD/sodipodi-0.dtd"
   xmlns="http://www.w3.org/2000/svg"
   xmlns:svg="http://www.w3.org/2000/svg"><defs
     id="defs1"><style
       id="style1">.cls-1{fill:#d50c2d;}</style></defs><sodipodi:namedview
     id="namedview1"
     pagecolor="#ffffff"
     bordercolor="#000000"
     borderopacity="0.25"
     inkscape:showpageshadow="2"
     inkscape:pageopacity="0.0"
     inkscape:pagecheckerboard="0"
     inkscape:deskcolor="#d1d1d1"
     inkscape:zoom="2.2823836"
     inkscape:cx="128.8127"
     inkscape:cy="1.7525538"
     inkscape:window-width="1280"
     inkscape:window-height="1368"
     inkscape:window-x="1280"
     inkscape:window-y="0"
     inkscape:window-maximized="0"
     inkscape:current-layer="g1" /><g
     inkscape:groupmode="layer"
     inkscape:label="Image"
     id="g1"><path
       id="rect2"
       style="fill:#ffffff;fill-opacity:1;stroke-width:14.1041;stroke-linecap:round;stroke-linejoin:round;paint-order:stroke fill markers"
       d="M 1e-6,1.5e-6 V 180 H 180 V 1.5e-6 Z M 34.664059,30.347652 h 16.78321 c 3.80708,0 5.36133,1.607859 5.36133,5.36133 v 42.19922 h 66.435541 v -42.19922 c 0,-3.80709 1.60982,-5.36133 5.36328,-5.36133 h 16.67578 c 3.75346,0 5.30877,1.71511 5.41602,5.36133 V 144.29102 c 0,3.80708 -1.60981,5.36132 -5.36328,5.36132 h -16.67578 c -3.80708,0 -5.36133,-1.60786 -5.36133,-5.36132 V 101.39453 H 56.808599 v 42.89649 c 0,3.8607 -1.60786,5.36132 -5.36133,5.36132 h -16.78321 c -3.80707,0 -5.36328,-1.55424 -5.36328,-5.36132 V 35.708981 c 0,-3.807089 1.55621,-5.36133 5.36328,-5.361329 z" /></g></svg>
